<svg xmlns="http://www.w3.org/2000/svg" viewBox="0 0 1440 320"><path fill="#0099ff" fill-opacity="1" d="M0,160L20,160C40,160,80,160,120,186.7C160,213,200,267,240,240C280,213,320,107,360,80C400,53,440,107,480,122.7C520,139,560,117,600,117.3C640,117,680,139,720,149.3C760,160,800,160,840,176C880,192,920,224,960,197.3C1000,171,1040,85,1080,96C1120,107,1160,213,1200,266.7C1240,320,1280,320,1320,314.7C1360,309,1400,299,1420,293.3L1440,288L1440,0L1420,0C1400,0,1360,0,1320,0C1280,0,1240,0,1200,0C1160,0,1120,0,1080,0C1040,0,1000,0,960,0C920,0,880,0,840,0C800,0,760,0,720,0C680,0,640,0,600,0C560,0,520,0,480,0C440,0,400,0,360,0C320,0,280,0,240,0C200,0,160,0,120,0C80,0,40,0,20,0L0,0Z" class='fill-current'></path></svg>